<svg width="139" height="30" viewBox="0 0 139 30" fill="none" xmlns="http://www.w3.org/2000/svg">
<path d="M16.0999 14.6513C16.0804 15.0953 16.0804 15.5358 16.0999 15.9726C16.1107 16.403 16.0943 16.8337 16.051 17.2617C15.9875 18.0835 15.9093 18.873 15.8116 19.6894C15.7188 20.4805 15.5551 21.2595 15.323 22.0151C15.0537 22.9435 14.7069 23.8425 14.2871 24.7007C13.863 25.5549 13.3298 26.3381 12.7039 27.0264C11.6364 28.2063 10.2245 28.9347 8.71671 29.0835L8.18411 29.1534L7.65639 29.2232C6.73134 29.2294 5.81013 29.092 4.92006 28.815C4.03628 28.5345 3.20777 28.0755 2.47691 27.4615C1.48737 26.6285 0.723675 25.5141 0.268301 24.2388C0.131626 23.9279 0.0535104 23.59 0.0386447 23.2451C-0.174002 20.5199 0.49571 17.7998 1.92964 15.5644C2.20384 15.0965 2.5779 14.7092 3.01929 14.4365C3.3419 14.2073 3.72022 14.0913 4.10415 14.1038C4.48808 14.1163 4.85951 14.2566 5.16926 14.5063C5.36711 14.653 5.53286 14.8462 5.65453 15.0719C5.77621 15.2977 5.85079 15.5502 5.87289 15.8115C5.90247 16.0808 5.90247 16.3531 5.87289 16.6225C5.83383 16.8991 5.74045 17.163 5.59925 17.396L5.55039 17.5195C5.53533 17.5679 5.50825 17.6107 5.47221 17.643C5.24723 17.9911 5.09384 18.3888 5.02267 18.8086C4.95675 19.2272 4.92405 19.6513 4.92494 20.0761C4.92498 20.4038 4.96945 20.7297 5.05688 21.043C5.14686 21.3782 5.26462 21.7036 5.40869 22.0151C5.53959 22.325 5.74567 22.5892 6.00428 22.7787C6.26289 22.9682 6.56402 23.0757 6.87458 23.0894C7.05997 23.1053 7.24622 23.1053 7.43162 23.0894C7.6173 23.0894 7.80298 23.0894 7.99354 23.0894C8.20432 23.0891 8.4117 23.031 8.59687 22.9204C8.78204 22.8097 8.93912 22.6499 9.05387 22.4556C9.5178 21.7528 9.86518 20.9655 10.08 20.1299C10.1856 19.7109 10.2704 19.286 10.3341 18.8569C10.3976 18.438 10.4514 18.0029 10.4953 17.5571C10.5591 16.9778 10.5917 16.3949 10.5931 15.8115C10.5931 15.2368 10.5931 14.6513 10.6224 14.0659C10.6451 13.5009 10.6239 12.9349 10.5588 12.3739C10.497 11.8082 10.4432 11.2442 10.3976 10.682C10.3549 10.3855 10.3385 10.0851 10.3487 9.78506C10.3621 9.48468 10.3899 9.18527 10.4318 8.88808C10.4171 8.47465 10.47 8.06168 10.5882 7.66884C10.7721 7.06001 11.1482 6.54367 11.6485 6.21326C12.0448 5.96769 12.5005 5.86264 12.9531 5.91248C13.4116 5.92683 13.8557 6.09142 14.2285 6.38514C14.5511 6.66812 14.8214 7.01634 15.0249 7.41102C15.2764 7.86914 15.475 8.3599 15.6162 8.87197C15.7535 9.38351 15.8435 9.90895 15.8849 10.4403C15.9501 11.1565 16.0038 11.8601 16.0462 12.5512C16.0804 13.2602 16.0999 13.9638 16.0999 14.6513Z" fill="#DC7B7D"/>
<path d="M22.6084 19.3564C22.6091 19.6367 22.647 19.9153 22.7208 20.1836C22.7941 20.4521 22.8771 20.7207 22.9602 21.0483C23.0167 21.1113 23.066 21.1816 23.1068 21.2578C23.1559 21.3478 23.215 21.4308 23.2827 21.5049C23.3809 21.6279 23.5169 21.7068 23.6647 21.7267C23.8125 21.7465 23.9618 21.7058 24.0841 21.6123C24.3686 21.4331 24.6413 21.2321 24.9001 21.0107C25.1644 20.7787 25.3965 20.5055 25.589 20.1997C26.217 19.3128 26.7544 18.3527 27.1917 17.3369C27.3628 16.9824 27.5289 16.6386 27.6804 16.2949C27.862 15.9235 28.0251 15.5416 28.169 15.1508C28.2351 14.8277 28.4096 14.5438 28.6576 14.3559C28.8474 14.217 29.0619 14.1242 29.2868 14.0837C29.5118 14.0432 29.742 14.0559 29.9621 14.121C30.1823 14.186 30.3872 14.302 30.5634 14.461C30.7395 14.6201 30.8827 14.8186 30.9835 15.0434C31.0449 15.1541 31.0926 15.2733 31.1252 15.3979C31.1594 15.5161 31.1936 15.6342 31.2376 15.7524C31.2816 16.1015 31.306 16.4668 31.3207 16.8266C31.3353 17.1865 31.3207 17.5678 31.3646 17.9008C31.4086 18.2339 31.4477 18.5561 31.477 18.873C31.5063 19.1899 31.5357 19.5122 31.5601 19.8398V20.2104C31.5597 20.3347 31.5695 20.4587 31.5894 20.581C31.5894 20.8389 31.6334 21.0806 31.6529 21.3008C31.6725 21.521 31.6969 21.7681 31.7213 22.0259C31.7458 22.2837 31.7213 22.5361 31.7213 22.7832C31.7213 23.0303 31.7213 23.2827 31.7213 23.5405C31.6822 24.0311 31.4966 24.4937 31.1936 24.8565C30.918 25.22 30.53 25.4591 30.104 25.5278C29.8628 25.6032 29.6073 25.6032 29.3661 25.5278C29.1427 25.4353 28.9347 25.3028 28.7505 25.1358C28.2729 24.7008 27.9637 24.0825 27.8856 23.4063V23.0195C27.858 22.9161 27.858 22.8061 27.8856 22.7026C27.9198 22.6113 27.8856 22.5039 27.7732 22.3857C27.719 22.4904 27.6497 22.5848 27.568 22.665L27.3579 22.8799C27.0688 23.2922 26.7519 23.68 26.4099 24.04C26.0773 24.3927 25.7158 24.7109 25.3301 24.9907C24.6551 25.515 23.8451 25.7879 23.0188 25.7696C21.4867 25.855 19.9799 25.3157 18.7873 24.2549C18.3317 23.8369 17.9718 23.307 17.7368 22.708C17.5904 22.2593 17.4729 21.7998 17.3849 21.333C17.2965 20.879 17.2313 20.42 17.1895 19.958V18.8838C17.1911 18.5245 17.1699 18.1655 17.126 17.8095C17.104 16.9779 17.1846 16.1467 17.3654 15.3388C17.5462 14.5439 17.7563 13.7275 17.9908 12.9433C18.0327 12.7863 18.0866 12.6336 18.1521 12.4867L18.3769 11.9926C18.4601 11.8193 18.5566 11.654 18.6651 11.4985C18.9229 11.1539 19.2605 10.8922 19.6424 10.7411C19.9768 10.6146 20.3353 10.585 20.6832 10.6552C21.0283 10.7271 21.3502 10.8975 21.6165 11.1493C21.8973 11.417 22.1166 11.7538 22.2566 12.1322C22.2957 12.2988 22.3396 12.4491 22.3836 12.5942C22.429 12.7522 22.4504 12.9173 22.4471 13.0829C22.4911 13.7436 22.5156 14.3935 22.5253 15.0434C22.5351 15.6933 22.5644 16.3378 22.6084 16.9985V19.3242V19.3564Z" fill="#DC7B7D"/>
<path d="M38.4449 18.9482C38.4009 19.4155 38.3765 19.9043 38.3618 20.4092C38.3472 20.914 38.3276 21.4136 38.2836 21.9077C38.2352 22.343 38.1045 22.7623 37.8998 23.1386C37.6952 23.515 37.4211 23.8401 37.0952 24.0931C36.7694 24.346 36.399 24.5212 36.0078 24.6074C35.6167 24.6935 35.2135 24.6887 34.8241 24.5933C34.2979 24.4254 33.8362 24.0726 33.5097 23.5889C33.2937 23.3407 33.1253 23.0474 33.0145 22.7263C32.9037 22.4052 32.8528 22.0629 32.8647 21.7197V20.1084C32.8647 19.5713 32.8647 19.0341 32.9331 18.497C32.9722 18.164 33.0016 17.8418 33.0113 17.5249C33.0211 17.208 33.0113 16.8749 33.0113 16.5205C33.0053 15.8039 33.1247 15.0927 33.3631 14.4257C33.6121 13.7628 33.9408 13.1396 34.3404 12.5727C34.5328 12.2923 34.7862 12.0696 35.0774 11.9251C35.3685 11.7806 35.6881 11.7188 36.0066 11.7455C36.3043 11.765 36.5932 11.8637 36.8486 12.033C37.1039 12.2024 37.318 12.4373 37.4725 12.7177C37.7711 13.2085 38.0186 13.7346 38.2104 14.2861C38.409 14.8332 38.515 15.4157 38.5231 16.0048C38.5231 16.268 38.4889 16.5419 38.4889 16.7998V17.6269H38.4596L38.4449 18.9482ZM35.9138 5.96618C36.1637 5.95705 36.4124 6.00864 36.6422 6.11726C36.8719 6.22588 37.077 6.38887 37.2429 6.5946C37.4014 6.78903 37.5212 7.01771 37.5947 7.26599C37.6669 7.48593 37.6936 7.72079 37.6729 7.9535C37.5702 9.26943 36.9497 9.94619 35.8161 9.99453C35.5666 10.0017 35.319 9.94692 35.0914 9.83441C34.8639 9.7219 34.6623 9.55449 34.5017 9.34462C34.332 9.13668 34.2015 8.89389 34.1176 8.63024C34.0338 8.36659 33.9982 8.0873 34.013 7.80848C34.0637 7.31175 34.2532 6.8445 34.5554 6.47107C34.7208 6.26216 34.9338 6.10533 35.1725 6.01662C35.4111 5.9279 35.667 5.9105 35.9138 5.96618Z" fill="#DC7B7D"/>
<path d="M45.6571 9.17275C46.7474 9.18312 47.8091 9.55777 48.7012 10.247C49.0824 10.5047 49.4238 10.8274 49.7127 11.203C50.0034 11.5817 50.2361 12.0098 50.4017 12.4706C50.4965 12.7348 50.5427 13.017 50.5377 13.301C50.5327 13.585 50.4765 13.865 50.3724 14.1249C50.316 14.29 50.2297 14.4407 50.1189 14.5681C50.008 14.6955 49.8748 14.7969 49.7274 14.8662C49.5834 14.9248 49.4303 14.9517 49.2769 14.9452C49.1234 14.9388 48.9727 14.8991 48.8332 14.8286C48.7012 14.7372 48.5644 14.6406 48.413 14.5493C48.2687 14.4552 48.1184 14.3726 47.9634 14.3022C47.7937 14.1433 47.578 14.056 47.3551 14.056C47.1321 14.056 46.9165 14.1433 46.7467 14.3022C46.3833 14.5478 46.0542 14.8499 45.7695 15.1992C45.4812 15.5593 45.2722 15.9875 45.1587 16.4506C45.053 16.9143 44.9827 17.3868 44.9486 17.8632C44.9241 18.3319 44.9241 18.8018 44.9486 19.2705V19.4101C45.0559 19.8397 45.1965 20.2584 45.3688 20.6616C45.5349 21.0752 45.7206 21.4673 45.9112 21.8432C45.9383 21.905 45.9817 21.9565 46.0357 21.9909C46.0897 22.0254 46.1518 22.0413 46.2141 22.0366C46.2876 22.0448 46.3619 22.0346 46.4313 22.0067C46.5007 21.9787 46.5634 21.9339 46.6148 21.8755C46.8298 21.666 47.0546 21.4189 47.2891 21.1396C47.4491 20.9178 47.6204 20.7062 47.8022 20.5058C47.9732 20.3178 48.1637 20.1191 48.3787 19.9043C48.6058 19.6399 48.9139 19.4772 49.2436 19.4477C49.3965 19.4335 49.5504 19.4559 49.6947 19.5134C49.8389 19.5708 49.9701 19.6621 50.0792 19.7807C50.1919 19.8947 50.2814 20.0335 50.342 20.188C50.4027 20.3426 50.433 20.5094 50.431 20.6777C50.431 20.8711 50.387 21.043 50.3675 21.2148C50.3411 21.398 50.2986 21.5779 50.2404 21.7519C50.0953 22.0864 49.9321 22.411 49.7518 22.7241C49.559 23.0416 49.3433 23.3416 49.1068 23.6211C48.8945 24.0246 48.6238 24.3874 48.3055 24.6953C47.996 25.0006 47.636 25.2377 47.2451 25.3936C46.8698 25.5705 46.4759 25.695 46.0724 25.7642C45.3938 25.8983 44.6988 25.8983 44.0202 25.7642C43.4075 25.6453 42.8176 25.4128 42.2758 25.0767C41.7518 24.7471 41.2853 24.3179 40.8978 23.8091C40.4999 23.2919 40.1798 22.708 39.9499 22.0796C39.7024 21.3575 39.5255 20.6084 39.4222 19.8452C39.3197 19.0794 39.3197 18.3013 39.4222 17.5356C39.5101 16.9985 39.5883 16.4614 39.6665 15.9243C39.7426 15.3758 39.8653 14.8363 40.0329 14.3129C40.318 13.2353 40.8095 12.2373 41.4744 11.3857C41.9475 10.6616 42.5783 10.0797 43.3091 9.69305C44.0398 9.30644 44.8471 9.12754 45.6571 9.17275Z" fill="#DC7B7D"/>
<path d="M63.7072 19.7431C63.7072 20.2373 63.6485 20.7314 63.5948 21.2202C63.5382 21.7241 63.4368 22.2206 63.2918 22.7026C63.0698 23.5931 62.6968 24.4296 62.1924 25.168C61.6644 25.9264 61.0351 26.5928 60.3258 27.1446C59.7314 27.5913 59.0405 27.8581 58.3225 27.918C57.7225 27.9654 57.1197 27.942 56.5243 27.8482C55.9428 27.7519 55.3727 27.5862 54.8239 27.354C54.3476 27.1875 53.9218 26.8811 53.5925 26.4678C53.2876 26.04 53.0829 25.5365 52.9964 25.0015C52.9623 24.8137 52.9665 24.62 53.0088 24.4342C53.051 24.2484 53.1302 24.0753 53.2407 23.9272C53.3437 23.7679 53.4811 23.6393 53.6407 23.553C53.8002 23.4668 53.9768 23.4255 54.1544 23.4331C54.6699 23.4321 55.1808 23.5397 55.6594 23.75C55.8803 23.8398 56.1213 23.8511 56.3484 23.7822C56.5768 23.6969 56.7889 23.5657 56.9738 23.3955C57.1009 23.2559 57.2279 23.0947 57.3599 22.9228C57.4933 22.7357 57.6004 22.5274 57.6775 22.3052C57.7206 22.2151 57.7535 22.1195 57.7752 22.0205C57.8004 21.9123 57.8331 21.8064 57.8729 21.7036C58 21.3061 58.083 21.0107 58.127 20.8227C58.171 20.6347 58.1612 20.5058 58.0977 20.436C58.0412 20.3958 57.9777 20.3688 57.9113 20.3568C57.8449 20.3448 57.7769 20.348 57.7117 20.3662C57.5211 20.3662 57.223 20.4145 56.8761 20.436C56.4023 20.5003 55.9231 20.5003 55.4493 20.436C54.99 20.3769 54.516 20.291 54.0225 20.1728C53.2765 19.91 52.626 19.3926 52.1657 18.6958C51.9778 18.4257 51.837 18.1198 51.7504 17.7934C51.6633 17.477 51.598 17.1538 51.5549 16.8266C51.452 16.0803 51.4209 15.3242 51.4621 14.5707C51.5012 13.9155 51.5256 13.2656 51.5256 12.6318C51.546 12.2718 51.5835 11.9132 51.638 11.5575C51.6903 11.2137 51.7588 10.8731 51.8432 10.537C51.9761 10.1634 52.1397 9.80383 52.3319 9.46279C52.5921 8.97551 52.9927 8.5975 53.4704 8.38857C53.9283 8.20899 54.4234 8.17731 54.8972 8.29726C55.3688 8.36911 55.8112 8.59091 56.1697 8.9354C56.5282 9.27988 56.7873 9.73202 56.9152 10.2362C57.0219 10.6125 57.0827 11.0026 57.096 11.3964C57.1048 11.7995 57.077 12.2025 57.0129 12.5995C56.9307 13.1823 56.8931 13.7716 56.9006 14.3613C56.9006 14.9252 56.9299 15.5107 56.9494 16.123C56.9447 16.2433 56.9665 16.3631 57.0129 16.4721C57.0569 16.7783 57.1937 16.9448 57.4283 16.9663C57.5358 16.9663 57.6433 17.0092 57.7508 17.02C57.8583 17.0307 57.9755 17.02 58.1026 17.02C58.2296 17.02 58.215 17.0629 58.2492 17.02C58.28 16.9611 58.2968 16.8946 58.298 16.8266C58.3175 16.6394 58.3273 16.4511 58.3274 16.2626V15.7255C58.3679 14.6756 58.4576 13.6286 58.5961 12.5888C58.7327 11.6333 58.9824 10.7016 59.3388 9.81729C59.4509 9.49585 59.6265 9.20577 59.853 8.96799C60.0794 8.73021 60.3511 8.55065 60.6483 8.44228C60.9513 8.27887 61.2947 8.22979 61.6256 8.30263C61.9502 8.38115 62.2513 8.54938 62.5003 8.7914C62.7848 8.96636 63.0211 9.22243 63.1843 9.53262C63.3537 9.86591 63.4679 10.2296 63.5215 10.6068C63.5606 10.913 63.6094 11.2138 63.6632 11.5038C63.7172 11.8118 63.7434 12.1248 63.7414 12.4384C63.7409 12.6324 63.7523 12.8262 63.7756 13.0185C63.7756 13.2226 63.8196 13.4374 63.8391 13.6738C63.8391 14.8017 63.8391 15.8598 63.8049 16.8427C63.7707 17.8256 63.7463 18.7817 63.7072 19.7431Z" fill="#DC7B7D"/>
<path d="M70.504 16.7997C70.6018 17.507 70.7405 18.2066 70.9194 18.8945C71.0912 19.539 71.3051 20.1691 71.5595 20.7797C71.7729 21.3148 72.0542 21.8139 72.395 22.2622C72.5565 22.5287 72.791 22.7319 73.0645 22.8423C73.3405 22.8909 73.6233 22.834 73.8658 22.6811C74.3355 22.4744 74.754 22.1487 75.0874 21.7304C75.3219 21.4028 75.5516 21.059 75.7764 20.6938C76.0012 20.321 76.1665 19.9086 76.265 19.4746C76.3041 19.3832 76.3432 19.2973 76.3774 19.2114C76.407 19.1318 76.4447 19.0561 76.4898 18.9858C76.6105 18.8005 76.7696 18.6495 76.9539 18.5454C77.0571 18.4953 77.1686 18.4695 77.2813 18.4695C77.3941 18.4695 77.5056 18.4953 77.6087 18.5454C77.8781 18.6098 78.1235 18.7623 78.3127 18.9828C78.5019 19.2032 78.6261 19.4813 78.669 19.7807C78.7075 20.0188 78.7336 20.2591 78.7472 20.5004C78.7572 20.7328 78.7307 20.9654 78.669 21.1879C78.4034 22.0939 78.0427 22.9627 77.5941 23.7768C77.1455 24.5769 76.5637 25.2766 75.879 25.8393C75.4262 26.2078 74.9163 26.4827 74.374 26.6504C73.7987 26.817 73.1986 26.8535 72.61 26.7578L72.3217 26.7041C72.2228 26.6886 72.126 26.6597 72.0334 26.6182C71.2841 26.3939 70.5694 26.0481 69.9128 25.5923C69.2523 25.1287 68.6494 24.5726 68.1195 23.938C67.5131 23.2405 66.9834 22.4671 66.5412 21.6338C66.1039 20.8198 65.7343 19.9641 65.4369 19.0771C65.3294 18.7011 65.2415 18.3305 65.1633 17.9653C65.0851 17.6 65.0314 17.2348 64.9874 16.8588C64.8355 15.0829 64.9013 13.2927 65.1829 11.536C65.3219 10.6302 65.5362 9.7402 65.823 8.87732C66.1061 8.03386 66.5067 7.24385 67.0103 6.5355C67.5314 5.79021 68.182 5.16616 68.9244 4.6996C69.6668 4.23304 70.4861 3.93327 71.3347 3.81771L72.1849 3.67806C72.4764 3.62945 72.7729 3.62945 73.0645 3.67806C73.6965 3.72925 74.3239 3.83521 74.9408 3.99496C75.5835 4.16667 76.2041 4.42652 76.7878 4.7684C77.6754 5.28606 78.4428 6.02116 79.0306 6.91685C79.4705 7.52871 79.772 8.24665 79.9102 9.0116C80.0322 9.73952 80.0322 10.4858 79.9102 11.2138C79.861 11.5953 79.7098 11.9521 79.4758 12.239C79.2417 12.5259 78.9354 12.7299 78.5957 12.8251C78.1774 12.9892 77.717 12.9641 77.3155 12.7553C76.9411 12.5672 76.595 12.3173 76.2894 12.0141C76.05 11.7562 75.8252 11.4769 75.6151 11.2191C75.405 10.9613 75.1851 10.682 74.975 10.392C74.8535 10.2168 74.6988 10.0728 74.5216 9.96981C74.3444 9.86687 74.149 9.80749 73.9489 9.79578C73.8206 9.81175 73.6911 9.81175 73.5629 9.79578C73.4358 9.79578 73.2941 9.79578 73.1475 9.79578C72.8544 9.78274 72.5629 9.85004 72.2994 9.99162C72.0358 10.1332 71.8084 10.3446 71.6377 10.6068C71.4919 10.8141 71.3581 11.0311 71.237 11.2567C71.1192 11.4853 71.0273 11.7288 70.9633 11.9818C70.732 12.7645 70.5829 13.5736 70.5187 14.3935C70.4489 15.1935 70.4439 15.9988 70.504 16.7997Z" fill="#DC7B7D"/>
<path d="M86.8683 22.1011C86.8976 22.5039 86.9172 22.9014 86.9172 23.3042C86.9415 23.834 86.8752 24.3642 86.7217 24.8672C86.5646 25.3772 86.2882 25.8329 85.9204 26.1885C85.4617 26.6483 84.8651 26.9065 84.2444 26.9136C83.9361 26.9197 83.6298 26.8587 83.343 26.7343C83.0562 26.6099 82.7946 26.4244 82.5733 26.1885C82.0478 25.6773 81.702 24.9798 81.596 24.2173C81.552 23.981 81.5227 23.75 81.4983 23.5137C81.4738 23.2773 81.469 23.041 81.469 22.81V21.5908C81.4676 21.1852 81.4464 20.78 81.4054 20.3769C81.3163 19.6886 81.2787 18.9934 81.2931 18.2983C81.3033 17.6004 81.2443 16.9035 81.1171 16.2197V15.8652C81.0732 15.2099 81.0341 14.5492 81.0048 13.894C80.9754 13.2387 80.9315 12.5673 80.8924 11.8852C80.8924 11.348 80.8337 10.8109 80.78 10.2738C80.7262 9.73671 80.6774 9.1996 80.6334 8.61952C80.5885 8.4585 80.5885 8.28639 80.6334 8.12537C80.6334 7.72254 80.6676 7.33044 80.6676 6.94372C80.6666 6.56127 80.6878 6.17914 80.7311 5.79967C80.793 5.54186 80.8565 5.29479 80.9217 5.05846C80.9811 4.8351 81.0682 4.62183 81.1807 4.42466C81.3696 4.12011 81.6143 3.86219 81.899 3.66733C82.1757 3.46744 82.4928 3.34528 82.8225 3.31156C83.1522 3.27785 83.4844 3.33362 83.79 3.47397C84.1468 3.63184 84.4612 3.88691 84.7037 4.21519C85.0203 4.59485 85.2675 5.03798 85.4317 5.52037C85.8375 6.78479 86.0969 8.10031 86.2038 9.43593C86.2038 10.1395 86.2624 10.8432 86.3259 11.5468C86.3895 12.2504 86.4481 12.9594 86.5067 13.663C86.5067 13.8241 86.58 13.8617 86.7217 13.7651C86.8634 13.6684 87.098 13.4911 87.2934 13.3622C87.4889 13.2333 87.6892 13.1098 87.9042 12.9916C88.6545 12.6087 89.4866 12.4618 90.3083 12.5673C91.1109 12.6975 91.8652 13.0693 92.4876 13.6415C92.7878 13.9017 93.0615 14.1971 93.3036 14.5224C93.5452 14.8449 93.7656 15.186 93.9632 15.5429C94.5812 16.6092 94.8196 17.8887 94.6326 19.1362C94.5936 19.4907 94.5594 19.8505 94.5398 20.2104C94.514 20.5853 94.46 20.9571 94.3786 21.3222C94.2711 21.7949 94.1782 22.2568 94.1049 22.7134C94.0316 23.1699 93.9388 23.6265 93.8313 24.0723C93.7167 24.66 93.4503 25.1989 93.0641 25.6245C92.7196 25.9954 92.29 26.2567 91.821 26.3806C91.3521 26.5045 90.8614 26.4864 90.4011 26.3281C89.9435 26.2054 89.5267 25.9428 89.1991 25.5708C88.8803 25.1856 88.6551 24.7182 88.5443 24.2119C88.5029 23.985 88.4751 23.7553 88.4613 23.5244C88.452 23.2832 88.4684 23.0417 88.5101 22.8047C88.6176 22.2676 88.7202 21.7304 88.8131 21.2363C88.9059 20.7422 89.0036 20.2212 89.0867 19.7002C89.1111 19.3139 89.1111 18.9262 89.0867 18.54C89.0427 18.2822 89.0085 18.0405 88.9743 17.8149C88.9414 17.5907 88.8592 17.3786 88.7349 17.1972C88.7302 17.1267 88.7106 17.0583 88.6775 16.9977C88.6444 16.937 88.5988 16.8858 88.5443 16.8481C88.4474 16.7846 88.3334 16.7599 88.2218 16.7783L88.0801 16.8642C88.0272 16.8993 87.9781 16.9407 87.9335 16.9877C87.7133 17.2067 87.5195 17.4558 87.3569 17.729C87.2041 17.9901 87.0654 18.2609 86.9416 18.54C86.8942 18.6394 86.8612 18.7463 86.8439 18.8569C86.824 18.9612 86.8126 19.0673 86.8097 19.1738V20.7851C86.8097 21.2685 86.8341 21.7036 86.8683 22.1011Z" fill="#DC7B7D"/>
<path d="M108.842 17.4497C108.798 17.8525 108.773 18.2446 108.764 18.6313C108.754 19.0181 108.734 19.4155 108.715 19.813C108.672 20.0681 108.651 20.327 108.651 20.5864C108.652 20.8465 108.641 21.1065 108.617 21.3652C108.617 21.6929 108.583 22.0205 108.568 22.3482C108.557 22.6826 108.51 23.0145 108.427 23.3364C108.393 23.8276 108.21 24.2922 107.908 24.6562C107.606 25.0202 107.202 25.2628 106.76 25.3452C106.333 25.4858 105.874 25.4612 105.461 25.2754C105.053 25.1138 104.693 24.8334 104.42 24.4644C104.191 24.0729 104.018 23.6455 103.907 23.1968C103.863 23.0088 103.755 22.9605 103.584 23.0571C103.389 23.3539 103.175 23.6357 102.944 23.9004C102.524 24.3176 102.041 24.652 101.517 24.8887C100.971 25.1253 100.389 25.2439 99.8022 25.2378C99.3641 25.241 98.9295 25.1517 98.522 24.9746C98.1155 24.8007 97.7363 24.5578 97.3981 24.2549C96.9457 23.8729 96.5515 23.4142 96.2303 22.896C95.9091 22.3709 95.6957 21.7752 95.6049 21.1504C95.5603 20.8951 95.5326 20.6366 95.5218 20.3769C95.5075 20.0943 95.5075 19.811 95.5218 19.5283C95.6064 18.695 95.7518 17.8706 95.9567 17.063C96.1644 16.2578 96.4719 15.4879 96.8704 14.7749C97.2313 14.0949 97.668 13.467 98.1702 12.9057C98.6866 12.3297 99.2879 11.8539 99.9488 11.4985C100.296 11.2988 100.668 11.1558 101.053 11.0741C101.481 10.9783 101.917 10.9422 102.353 10.9667C102.796 10.992 103.236 11.0639 103.667 11.1816C104.067 11.2886 104.447 11.4703 104.791 11.7187C104.807 11.7619 104.835 11.7992 104.869 11.8261C104.91 11.8563 104.947 11.8904 104.982 11.9282C105.034 11.953 105.09 11.963 105.147 11.9574C105.203 11.9518 105.257 11.9306 105.304 11.8959C105.367 11.8494 105.42 11.789 105.461 11.7187C105.504 11.6493 105.559 11.5893 105.622 11.5414C105.801 11.376 106.011 11.256 106.238 11.1901C106.464 11.1242 106.701 11.1139 106.931 11.1601C107.17 11.1953 107.398 11.2882 107.6 11.4322C107.802 11.5761 107.973 11.7675 108.099 11.9926C108.289 12.3139 108.401 12.6841 108.422 13.0668C108.485 13.3435 108.528 13.6256 108.549 13.9101C108.549 14.1948 108.602 14.4741 108.646 14.7587C108.731 15.1878 108.779 15.6249 108.788 16.0639C108.808 16.5258 108.822 16.9824 108.842 17.4497ZM100.99 20.3071C100.996 20.3947 100.996 20.4827 100.99 20.5703C100.98 20.5958 100.975 20.6232 100.975 20.6509C100.975 20.6785 100.98 20.7059 100.99 20.7314C100.99 20.8711 101.034 20.9409 101.117 20.9409C101.151 20.9444 101.186 20.9401 101.219 20.928C101.251 20.916 101.282 20.8966 101.307 20.8711C101.396 20.773 101.479 20.669 101.556 20.5596C101.614 20.4717 101.677 20.3891 101.747 20.3125C102.185 19.6501 102.582 18.9556 102.934 18.2339C103.26 17.5177 103.614 16.8248 103.995 16.1552V16.1176C103.995 16.1176 103.995 16.1176 103.995 16.0854C103.995 16.0126 103.985 15.9401 103.965 15.8706C103.916 15.8429 103.86 15.8317 103.804 15.8383C103.57 16.0263 103.315 16.2089 103.096 16.3755C102.869 16.5483 102.634 16.7079 102.392 16.8535C102.211 16.9748 102.047 17.123 101.903 17.2939C101.748 17.4779 101.618 17.6861 101.517 17.9116C101.31 18.2895 101.169 18.7067 101.102 19.1416C101.068 19.5659 101.034 19.9526 100.99 20.3071Z" fill="#DC7B7D"/>
<path d="M115.609 18.9482C115.566 19.4155 115.536 19.9042 115.526 20.4091C115.517 20.914 115.492 21.4135 115.448 21.9077C115.399 22.3431 115.268 22.7625 115.063 23.1389C114.858 23.5153 114.583 23.8404 114.257 24.0933C113.931 24.3462 113.56 24.5213 113.168 24.6074C112.777 24.6935 112.373 24.6887 111.984 24.5932C111.458 24.4239 110.997 24.0714 110.669 23.5888C110.454 23.3404 110.286 23.0469 110.176 22.7258C110.066 22.4047 110.016 22.0625 110.029 21.7197V20.1083C110.029 19.5712 110.029 19.0341 110.093 18.497C110.137 18.164 110.161 17.8417 110.176 17.5248C110.191 17.2079 110.176 16.8749 110.176 16.5204C110.17 15.8038 110.289 15.0927 110.528 14.4257C110.777 13.7628 111.105 13.1395 111.505 12.5726C111.697 12.2923 111.951 12.0696 112.242 11.9251C112.533 11.7805 112.853 11.7188 113.171 11.7455C113.469 11.765 113.758 11.8637 114.013 12.033C114.268 12.2023 114.483 12.4373 114.637 12.7177C114.934 13.2097 115.181 13.7355 115.375 14.286C115.568 14.8417 115.665 15.4316 115.663 16.0263C115.64 16.2904 115.628 16.5558 115.629 16.8212V17.6484H115.6L115.609 18.9482ZM113.073 5.94466C113.333 5.94064 113.59 5.99932 113.826 6.11654C114.047 6.23165 114.245 6.39419 114.407 6.59457C114.563 6.7917 114.682 7.01958 114.759 7.26596C114.829 7.48653 114.856 7.72081 114.837 7.95347C114.73 9.26939 114.109 9.94616 112.981 9.9945C112.731 10.0028 112.483 9.94861 112.255 9.83601C112.028 9.72342 111.826 9.55537 111.666 9.34459C111.326 8.92278 111.151 8.37111 111.178 7.80845C111.232 7.31194 111.423 6.8455 111.725 6.47104C111.889 6.26303 112.1 6.10666 112.337 6.01794C112.574 5.92922 112.828 5.91135 113.073 5.96615V5.94466Z" fill="#DC7B7D"/>
<path d="M131.954 18.5453C131.978 19.1393 131.952 19.7345 131.876 20.3232C131.803 20.8979 131.744 21.4834 131.7 22.0688C131.637 22.4361 131.594 22.8075 131.573 23.1806C131.55 23.5412 131.508 23.8999 131.446 24.2549C131.363 24.8439 131.134 25.3962 130.783 25.8504C130.431 26.3046 129.973 26.6429 129.457 26.8276C129.068 26.9703 128.652 27.0028 128.248 26.9221C127.844 26.8413 127.465 26.65 127.146 26.3657C126.796 26.0831 126.513 25.7109 126.324 25.2813C126.134 24.8517 126.042 24.3777 126.056 23.9004C126.058 23.2626 126.112 22.6262 126.218 21.999C126.433 20.9248 126.633 19.915 126.828 18.916C127.024 17.9169 127.2 16.8857 127.371 15.8329C127.434 15.5268 127.493 15.2099 127.547 14.8769C127.601 14.5526 127.629 14.2237 127.63 13.8939C127.61 13.6473 127.533 13.4104 127.405 13.2064C127.328 13.1007 127.231 13.0153 127.12 12.9567C127.009 12.8981 126.888 12.8678 126.765 12.8681C126.126 12.8417 125.493 13.0129 124.937 13.3622C124.615 13.6254 124.307 13.8993 124.004 14.1732C123.703 14.4672 123.445 14.8095 123.237 15.1884C123.11 15.3979 122.993 15.6181 122.885 15.8383C122.778 16.0585 122.66 16.2787 122.533 16.4936C122.248 17.0245 122.123 17.6414 122.177 18.2553C122.221 19.0771 122.255 19.8935 122.274 20.7045C122.294 21.5156 122.328 22.3159 122.372 23.1538V24.0132C122.372 24.2842 122.329 24.5531 122.245 24.8081C122.067 25.3637 121.742 25.8481 121.312 26.1992C120.905 26.5123 120.429 26.698 119.934 26.7363C119.415 26.8171 118.886 26.7177 118.421 26.4519C117.955 26.1861 117.577 25.7673 117.339 25.2539C117.218 25.0156 117.126 24.761 117.066 24.4966C117.012 24.2495 116.963 23.997 116.924 23.7392C116.855 23.0141 116.821 22.2944 116.811 21.5908C116.802 20.8872 116.772 20.1835 116.728 19.4746C116.729 19.1158 116.713 18.7572 116.68 18.4003C116.65 18.0458 116.621 17.686 116.601 17.3261V17.2509C116.557 16.5043 116.523 15.7631 116.489 15.0326C116.455 14.3022 116.43 13.5663 116.406 12.8143C116.389 12.7205 116.379 12.6253 116.377 12.5297V12.2504C116.401 11.5624 116.62 10.8998 117.002 10.3544C117.36 9.81696 117.879 9.43634 118.468 9.28014C119.134 9.10193 119.837 9.22172 120.422 9.61315C120.993 9.975 121.431 10.5451 121.659 11.2245C121.815 11.6735 121.891 12.1512 121.883 12.6317C121.883 12.6586 121.883 12.6908 121.947 12.7392C122.01 12.7875 122.054 12.7392 122.074 12.7016C122.348 12.4033 122.637 12.1218 122.939 11.8583C123.232 11.6055 123.544 11.3809 123.872 11.1869C124.063 11.0472 124.258 10.913 124.463 10.7841C124.669 10.6552 124.884 10.5316 125.123 10.4135C125.944 9.97543 126.879 9.86346 127.767 10.0966C128.64 10.3387 129.42 10.8805 129.995 11.6434C130.395 12.1101 130.711 12.6572 130.923 13.2548L131.485 14.8232C131.671 15.352 131.806 15.9011 131.886 16.4613C131.884 16.5519 131.901 16.6418 131.935 16.7245C131.964 16.8084 131.979 16.8977 131.979 16.9877C131.996 17.247 131.996 17.5073 131.979 17.7665C131.964 18.0297 131.954 18.2875 131.954 18.5453Z" fill="#DC7B7D"/>
<path d="M133.586 1.69613C134.388 0.982051 135.404 0.622064 136.435 0.686353C136.947 0.729549 137.432 0.962204 137.809 1.34645C138.186 1.7307 138.434 2.24392 138.511 2.80258C138.539 3.11505 138.476 3.42902 138.331 3.69956C138.146 3.992 137.893 4.22401 137.598 4.37095C136.576 4.95103 135.409 5.10142 134.304 5.44517C132.779 5.92848 131.401 6.85647 130.317 8.13074C130.545 6.95345 130.896 5.809 131.363 4.72007C131.865 3.52522 132.629 2.48612 133.586 1.69613Z" fill="#DC7B7D"/>
</svg>
